<?xml version="1.0" encoding="UTF-8"?>
<svg id="Calque_2" data-name="Calque 2" xmlns="http://www.w3.org/2000/svg" viewBox="0 0 509.47 173.7">
  <defs>
    <style>
      .cls-1 {
        fill: #d2367a;
      }

      .cls-2 {
        fill: #ffe5e5;
      }

      .cls-3 {
        fill: #36206d;
      }
    </style>
  </defs>
  <g id="Calque_1-2" data-name="Calque 1">
    <g id="Deckouvrte">
      <path class="cls-3" d="M384.37,37.04c-44.32,70.55-123.63,119.11-207.62,118.65-47.2,.11-93.78-15.05-133.59-39.94C27.75,106.06,13.06,95.18,0,82.5c13.6,11.94,28.78,22.06,44.53,30.9,42.98,23.98,92.71,36.72,141.92,31.86,75.09-6.8,142.57-54.32,179.18-119.29,2.93-5.25,9.56-7.14,14.81-4.21,5.43,3,7.23,10.03,3.93,15.28h0Z"/>
      <g>
        <path class="cls-3" d="M509.46,30.61l-.7,2.93c-.06,.25-.31,.41-.57,.35-.25-.06-.41-.31-.35-.57h0s.69-2.92,.69-2.92h0c.06-.26,.31-.42,.57-.36,.25,.06,.41,.31,.35,.57h0Z"/>
        <path class="cls-3" d="M508.01,36.45l-.8,2.9c-.07,.25-.32,.39-.57,.32-.25-.07-.39-.32-.32-.57h0s.79-2.89,.79-2.89h0c.07-.26,.32-.4,.57-.33,.25,.07,.4,.32,.33,.57h0Z"/>
        <path class="cls-3" d="M506.37,42.23l-.9,2.87c-.08,.24-.33,.38-.58,.3-.24-.08-.38-.33-.3-.58h0s.89-2.86,.89-2.86h0c.08-.25,.33-.39,.58-.31,.24,.08,.38,.33,.3,.58h0Z"/>
        <path class="cls-3" d="M504.53,47.96l-.99,2.84c-.08,.24-.34,.36-.58,.28s-.36-.34-.28-.58h0s.98-2.83,.98-2.83h0c.08-.25,.34-.37,.58-.29s.36,.34,.28,.58h0Z"/>
        <path class="cls-3" d="M502.49,53.62l-1.09,2.8c-.09,.23-.35,.35-.58,.26-.23-.09-.35-.35-.26-.58h0s1.08-2.8,1.08-2.8h0c.09-.24,.35-.36,.59-.27,.23,.09,.35,.35,.26,.59h0Z"/>
        <path class="cls-3" d="M500.26,59.21l-1.19,2.76c-.1,.23-.36,.33-.59,.23-.23-.1-.33-.36-.23-.59h0s1.18-2.76,1.18-2.76h0c.1-.23,.36-.34,.59-.24,.23,.1,.33,.36,.24,.59h0Z"/>
        <path class="cls-3" d="M497.83,64.71l-1.29,2.72c-.1,.22-.37,.31-.59,.21-.22-.1-.31-.37-.21-.59h0s1.27-2.71,1.27-2.71h0c.1-.23,.37-.32,.59-.22,.22,.1,.32,.37,.21,.59h0Z"/>
        <path class="cls-3" d="M495.21,70.13l-1.38,2.67c-.11,.21-.37,.3-.59,.19s-.3-.37-.19-.59h0s1.37-2.67,1.37-2.67h0c.11-.22,.38-.31,.59-.2,.22,.11,.3,.38,.19,.59h0Z"/>
        <path class="cls-3" d="M492.4,75.45l-1.47,2.62c-.12,.21-.38,.28-.59,.16-.21-.12-.28-.38-.16-.59h0s1.46-2.62,1.46-2.62h0c.12-.22,.38-.29,.59-.17,.21,.12,.28,.38,.17,.59h0Z"/>
        <path class="cls-3" d="M489.4,80.66l-1.57,2.57c-.12,.2-.39,.27-.59,.14-.2-.12-.27-.39-.14-.59h0s1.55-2.56,1.55-2.56h0c.12-.21,.39-.27,.59-.15,.2,.12,.27,.39,.14,.59h0Z"/>
        <path class="cls-3" d="M486.23,85.77l-1.66,2.51c-.13,.19-.39,.25-.59,.12-.19-.13-.25-.39-.12-.59h0s1.64-2.51,1.64-2.51h0c.13-.2,.39-.26,.59-.13,.2,.13,.25,.39,.12,.59h0Z"/>
        <path class="cls-3" d="M482.87,90.76l-1.74,2.45c-.13,.19-.39,.23-.58,.1-.19-.13-.23-.39-.1-.58h0s1.73-2.45,1.73-2.45h0c.13-.2,.4-.24,.59-.11,.19,.13,.23,.4,.1,.59h0Z"/>
        <path class="cls-3" d="M479.35,95.63l-1.83,2.39c-.14,.18-.4,.22-.58,.08s-.22-.4-.08-.58h0s1.81-2.39,1.81-2.39h0c.14-.19,.4-.22,.58-.08,.18,.14,.22,.4,.08,.58h0Z"/>
        <path class="cls-3" d="M475.66,100.38l-1.91,2.32c-.14,.17-.4,.2-.58,.06-.17-.14-.2-.4-.06-.58h0s1.89-2.32,1.89-2.32h0c.14-.18,.4-.21,.58-.06,.18,.14,.2,.4,.06,.58h0Z"/>
        <path class="cls-3" d="M471.8,104.99l-1.99,2.26c-.15,.17-.4,.18-.57,.04s-.18-.4-.04-.57h0s1.97-2.26,1.97-2.26h0c.15-.17,.4-.19,.57-.04,.17,.15,.19,.4,.04,.57h0Z"/>
        <path class="cls-3" d="M467.79,109.48l-2.06,2.19c-.15,.16-.4,.17-.56,.02-.16-.15-.17-.4-.02-.56h0s2.05-2.19,2.05-2.19h0c.15-.17,.41-.17,.57-.02,.16,.15,.17,.41,.02,.57h0Z"/>
        <path class="cls-3" d="M463.64,113.82l-2.13,2.12c-.15,.15-.4,.15-.56,0-.15-.15-.15-.4,0-.56h0s2.12-2.12,2.12-2.12h0c.16-.16,.41-.16,.56,0s.15,.41,0,.56h0Z"/>
        <path class="cls-3" d="M459.34,118.03l-2.2,2.05c-.16,.15-.4,.14-.55-.02-.15-.16-.14-.4,.02-.55h0s2.19-2.05,2.19-2.05h0c.16-.15,.41-.14,.55,.01,.15,.16,.14,.41-.02,.55h0Z"/>
        <path class="cls-3" d="M454.91,122.09l-2.26,1.98c-.16,.14-.4,.12-.54-.04-.14-.16-.12-.4,.04-.54h0s2.25-1.98,2.25-1.98h0c.16-.15,.41-.13,.55,.03,.14,.16,.12,.41-.04,.55h0Z"/>
        <path class="cls-3" d="M450.35,126.01l-2.33,1.9c-.16,.13-.4,.11-.54-.05-.13-.16-.11-.4,.05-.54h0s2.31-1.9,2.31-1.9h0c.16-.14,.4-.11,.54,.05s.11,.4-.05,.54h0Z"/>
        <path class="cls-3" d="M445.67,129.78l-2.38,1.83c-.16,.13-.4,.1-.53-.07-.13-.16-.1-.4,.07-.53h0s2.37-1.83,2.37-1.83h0c.17-.13,.4-.1,.53,.07,.13,.17,.1,.4-.07,.53h0Z"/>
        <path class="cls-3" d="M440.87,133.4l-2.44,1.76c-.17,.12-.4,.08-.52-.08s-.08-.4,.08-.52h0s2.43-1.76,2.43-1.76h0c.17-.12,.4-.09,.52,.08,.12,.17,.08,.4-.08,.52h0Z"/>
        <path class="cls-3" d="M435.97,136.88l-2.49,1.68c-.17,.11-.4,.07-.51-.1-.11-.17-.07-.4,.1-.51h0s2.48-1.68,2.48-1.68h0c.17-.12,.4-.07,.51,.1,.11,.17,.07,.4-.1,.51h0Z"/>
        <path class="cls-3" d="M430.96,140.2l-2.54,1.61c-.17,.11-.39,.06-.5-.11-.11-.17-.06-.39,.11-.5h0s2.53-1.61,2.53-1.61h0c.17-.11,.4-.06,.5,.11,.11,.17,.06,.4-.11,.5h0Z"/>
        <path class="cls-3" d="M425.86,143.38l-2.59,1.53c-.17,.1-.39,.04-.49-.13-.1-.17-.04-.39,.13-.49h0s2.57-1.53,2.57-1.53h0c.17-.1,.39-.05,.49,.12s.05,.39-.13,.49h0Z"/>
        <path class="cls-3" d="M420.67,146.41l-2.63,1.46c-.17,.09-.39,.03-.48-.14-.09-.17-.03-.39,.14-.48l2.62-1.46h0c.17-.1,.39-.04,.48,.14,.1,.17,.03,.39-.14,.48h0Z"/>
        <path class="cls-3" d="M415.39,149.28l-2.67,1.38c-.17,.09-.38,.02-.47-.15-.09-.17-.02-.38,.15-.47l2.66-1.38c.17-.09,.38-.03,.47,.14,.09,.17,.03,.38-.14,.47h0Z"/>
        <path class="cls-3" d="M410.04,152.01l-2.7,1.31c-.17,.08-.38,.01-.46-.16-.08-.17,0-.38,.16-.46l2.69-1.31c.17-.09,.38-.02,.46,.15,.09,.17,.02,.38-.15,.46h0Z"/>
        <path class="cls-3" d="M404.61,154.6l-2.74,1.24c-.17,.08-.37,0-.45-.17-.08-.17,0-.37,.17-.45l2.73-1.24c.17-.08,.37,0,.45,.16,.08,.17,0,.37-.16,.45h0Z"/>
        <path class="cls-3" d="M399.12,157.03l-2.77,1.16c-.17,.07-.37,0-.44-.18-.07-.17,.01-.37,.18-.44l2.76-1.16c.17-.07,.37,0,.44,.17,.07,.17,0,.37-.17,.44h0Z"/>
        <path class="cls-3" d="M393.57,159.32l-2.8,1.09c-.17,.07-.36-.02-.43-.19-.07-.17,.02-.36,.19-.43l2.79-1.09c.17-.07,.36,.01,.43,.18,.07,.17-.01,.36-.18,.43h0Z"/>
        <path class="cls-3" d="M387.95,161.46l-2.83,1.02c-.17,.06-.35-.03-.42-.2s.03-.36,.2-.42l2.82-1.02c.17-.06,.36,.02,.42,.19,.06,.17-.02,.36-.19,.42h0Z"/>
        <path class="cls-3" d="M382.29,163.45l-2.85,.94c-.17,.06-.35-.04-.4-.2-.06-.17,.04-.35,.21-.41l2.84-.95c.17-.06,.35,.03,.41,.2,.06,.17-.03,.35-.2,.41h0Z"/>
        <path class="cls-3" d="M376.57,165.31l-2.87,.87c-.17,.05-.34-.04-.39-.21-.05-.17,.05-.34,.21-.39l2.87-.87c.17-.05,.35,.04,.4,.21,.05,.17-.04,.35-.21,.4h0Z"/>
        <path class="cls-3" d="M370.81,167.02l-2.9,.8c-.17,.05-.34-.05-.38-.22-.05-.17,.05-.34,.22-.38l2.89-.8c.17-.05,.34,.05,.39,.21,.05,.17-.05,.34-.21,.39h0Z"/>
        <path class="cls-3" d="M365.01,168.58l-2.91,.73c-.16,.04-.33-.06-.37-.22-.04-.16,.06-.33,.23-.37l2.91-.73c.16-.04,.33,.05,.38,.22s-.05,.33-.22,.38h0Z"/>
        <path class="cls-3" d="M359.17,170.01l-2.94,.65c-.16,.04-.32-.07-.36-.23-.04-.16,.07-.32,.23-.36h0s2.92-.65,2.92-.65h0c.16-.04,.33,.07,.36,.23,.04,.16-.07,.33-.23,.36h0Z"/>
        <path class="cls-3" d="M353.29,171.24l-2.96,.54c-.16,.03-.32-.08-.35-.24s.08-.32,.24-.35h0s2.95-.54,2.95-.54h0c.16-.03,.32,.08,.35,.24s-.08,.32-.24,.35h0Z"/>
        <path class="cls-3" d="M347.37,172.25l-2.98,.41c-.16,.02-.31-.09-.33-.25-.02-.16,.09-.31,.25-.33h0s2.96-.42,2.96-.42h0c.16-.02,.31,.09,.33,.25s-.09,.31-.25,.33h0Z"/>
        <path class="cls-3" d="M341.4,173.02l-2.99,.28c-.16,.01-.3-.1-.31-.26-.01-.16,.1-.3,.26-.31h0s2.98-.28,2.98-.28h0c.16-.02,.3,.1,.32,.26,.02,.16-.1,.3-.26,.32h0Z"/>
        <path class="cls-3" d="M335.41,173.5l-3,.14c-.16,0-.29-.11-.3-.27s.11-.29,.27-.3h0s2.99-.14,2.99-.14h0c.16,0,.29,.11,.3,.27,0,.16-.11,.29-.27,.3h0Z"/>
        <path class="cls-3" d="M329.4,173.7l-3.01-.02c-.15,0-.28-.13-.28-.28,0-.15,.13-.28,.28-.28h0s2.99,.01,2.99,.01h0c.16,0,.28,.13,.28,.28,0,.16-.13,.28-.28,.28h0Z"/>
        <path class="cls-3" d="M323.38,173.58l-3-.18c-.15,0-.27-.14-.26-.29s.14-.27,.29-.26h0s2.99,.18,2.99,.18h0c.15,0,.27,.14,.26,.29,0,.15-.14,.27-.29,.26h0Z"/>
        <path class="cls-3" d="M317.39,173.13l-2.99-.35c-.15-.02-.25-.15-.24-.3s.15-.25,.3-.24h0s2.97,.35,2.97,.35h0c.15,.02,.26,.15,.24,.3s-.15,.26-.3,.24h0Z"/>
        <path class="cls-3" d="M311.42,172.34l-2.96-.52c-.14-.03-.24-.16-.21-.31s.16-.24,.31-.21h0s2.95,.52,2.95,.52h0c.15,.03,.24,.16,.22,.31s-.16,.24-.31,.22h0Z"/>
        <path class="cls-3" d="M305.52,171.21l-2.93-.69c-.14-.03-.23-.17-.19-.31s.17-.23,.31-.19h0s2.91,.69,2.91,.69h0c.14,.03,.23,.18,.2,.32-.03,.14-.17,.23-.32,.2h0Z"/>
        <path class="cls-3" d="M299.69,169.74l-2.88-.86c-.14-.04-.21-.18-.17-.32,.04-.13,.18-.21,.32-.17h0s2.87,.85,2.87,.85h0c.14,.04,.21,.19,.17,.32-.04,.14-.18,.21-.32,.17h0Z"/>
        <path class="cls-3" d="M293.95,167.94l-2.83-1.02c-.13-.05-.2-.19-.15-.32,.05-.13,.19-.2,.32-.15h0s2.82,1.01,2.82,1.01h0c.13,.05,.2,.19,.15,.33-.05,.13-.19,.2-.32,.15h0Z"/>
        <path class="cls-3" d="M288.32,165.83l-2.77-1.16c-.13-.05-.18-.2-.13-.32,.05-.13,.2-.18,.32-.13h0s2.76,1.16,2.76,1.16h0c.13,.06,.19,.2,.13,.33-.05,.13-.2,.19-.32,.13h0Z"/>
        <path class="cls-3" d="M282.81,163.44l-2.71-1.3c-.12-.06-.17-.2-.11-.32,.06-.12,.2-.17,.32-.11h0s2.7,1.29,2.7,1.29h0c.12,.06,.17,.21,.11,.33-.06,.12-.2,.17-.32,.12h0Z"/>
        <path class="cls-3" d="M277.42,160.78l-2.65-1.42c-.12-.06-.16-.2-.1-.32,.06-.12,.21-.16,.32-.09l2.64,1.41h0c.12,.06,.16,.21,.1,.33s-.21,.16-.32,.1h0Z"/>
        <path class="cls-3" d="M272.15,157.89l-2.59-1.52c-.11-.06-.15-.21-.08-.32,.06-.11,.21-.15,.32-.08l2.59,1.51c.11,.06,.15,.21,.09,.32-.06,.11-.21,.15-.32,.09h0Z"/>
        <path class="cls-3" d="M266.99,154.81l-2.54-1.61c-.11-.07-.14-.21-.07-.31,.07-.11,.21-.14,.32-.07l2.53,1.6c.11,.07,.14,.21,.08,.32-.07,.11-.21,.14-.32,.08h0Z"/>
        <path class="cls-3" d="M261.95,151.55l-2.48-1.69c-.1-.07-.13-.21-.06-.31s.21-.13,.31-.06l2.48,1.68c.1,.07,.13,.21,.06,.31-.07,.1-.21,.13-.31,.06h0Z"/>
        <path class="cls-3" d="M257.01,148.14l-2.44-1.75c-.1-.07-.12-.21-.05-.3,.07-.1,.21-.12,.31-.05l2.44,1.75c.1,.07,.12,.21,.05,.31-.07,.1-.21,.12-.31,.05h0Z"/>
        <path class="cls-3" d="M252.15,144.61l-2.4-1.81c-.09-.07-.11-.2-.04-.3,.07-.09,.21-.11,.3-.04l2.4,1.8c.1,.07,.12,.21,.05,.3s-.21,.12-.3,.05h0Z"/>
        <path class="cls-3" d="M247.37,140.97l-2.36-1.85c-.09-.07-.11-.2-.04-.29,.07-.09,.2-.11,.29-.03l2.36,1.84c.09,.07,.11,.2,.04,.3-.07,.09-.2,.11-.3,.04h0Z"/>
        <path class="cls-3" d="M242.66,137.25l-2.34-1.88c-.09-.07-.1-.2-.03-.29,.07-.09,.2-.1,.29-.03l2.34,1.88c.09,.07,.1,.2,.03,.29-.07,.09-.2,.1-.29,.03h0Z"/>
        <path class="cls-3" d="M238,133.47l-2.31-1.91c-.08-.07-.1-.2-.03-.28s.2-.1,.28-.03l2.31,1.91c.09,.07,.1,.2,.03,.28-.07,.09-.2,.1-.28,.03h0Z"/>
        <path class="cls-3" d="M233.38,129.64l-2.29-1.93c-.08-.07-.09-.19-.02-.27,.07-.08,.19-.09,.27-.02l2.3,1.93c.08,.07,.09,.19,.03,.28-.07,.08-.19,.09-.28,.03h0Z"/>
        <path class="cls-3" d="M228.8,125.76l-2.28-1.95c-.08-.07-.09-.19-.02-.27,.07-.08,.19-.09,.27-.02l2.29,1.94c.08,.07,.09,.19,.02,.27-.07,.08-.19,.09-.27,.02h0Z"/>
        <path class="cls-3" d="M224.24,121.87l-2.28-1.96c-.08-.07-.09-.18-.02-.26,.07-.08,.18-.09,.26-.02l2.28,1.95c.08,.07,.09,.19,.02,.26s-.19,.09-.26,.02h0Z"/>
        <path class="cls-3" d="M219.69,117.95l-2.27-1.96c-.08-.07-.08-.18-.02-.25s.18-.08,.25-.02l2.27,1.96c.08,.07,.09,.18,.02,.26-.07,.08-.18,.09-.26,.02h0Z"/>
        <path class="cls-3" d="M215.15,114.03l-2.27-1.96c-.07-.06-.08-.17-.02-.25,.06-.07,.17-.08,.25-.02l2.27,1.96c.07,.06,.08,.18,.02,.25s-.18,.08-.25,.02h0Z"/>
        <path class="cls-3" d="M210.6,110.12l-2.28-1.95c-.07-.06-.08-.17-.02-.24,.06-.07,.17-.08,.24-.02l2.28,1.95c.07,.06,.08,.17,.02,.24-.06,.07-.17,.08-.24,.02h0Z"/>
        <path class="cls-3" d="M206.05,106.21l-2.28-1.95c-.07-.06-.08-.16-.02-.23,.06-.07,.16-.08,.24-.02l2.29,1.94c.07,.06,.08,.17,.02,.24-.06,.07-.17,.08-.24,.02h0Z"/>
        <path class="cls-3" d="M201.48,102.32l-2.29-1.94c-.07-.06-.08-.16-.02-.23,.06-.07,.16-.08,.23-.02l2.3,1.93c.07,.06,.08,.16,.02,.23-.06,.07-.16,.08-.23,.02h0Z"/>
        <path class="cls-3" d="M196.9,98.46l-2.31-1.91c-.07-.05-.08-.15-.03-.22s.16-.08,.22-.02l2.32,1.91c.07,.06,.08,.16,.02,.22-.06,.07-.16,.08-.22,.02h0Z"/>
        <path class="cls-3" d="M192.24,94.69l-2.4-1.8c-.07-.05-.09-.14-.04-.21s.15-.08,.22-.03l2.41,1.8c.07,.05,.08,.15,.03,.22s-.15,.08-.22,.03h0Z"/>
        <path class="cls-3" d="M187.39,91.16l-2.49-1.67c-.07-.04-.09-.14-.05-.2,.04-.07,.14-.09,.21-.04l2.5,1.67c.07,.05,.09,.14,.04,.21-.05,.07-.14,.09-.21,.04h0Z"/>
        <path class="cls-3" d="M182.38,87.88l-2.57-1.55c-.07-.04-.09-.13-.05-.2s.13-.09,.2-.05l2.58,1.55c.07,.04,.09,.13,.05,.2-.04,.07-.13,.09-.2,.05h0Z"/>
        <path class="cls-3" d="M177.21,84.85l-2.64-1.42c-.07-.03-.1-.12-.06-.19,.03-.07,.12-.09,.19-.06l2.65,1.42c.07,.04,.09,.12,.06,.19s-.12,.09-.19,.06h0Z"/>
        <path class="cls-3" d="M171.9,82.07l-2.7-1.3c-.07-.03-.1-.11-.07-.18s.11-.1,.18-.07l2.71,1.29c.07,.03,.1,.11,.06,.18-.03,.07-.11,.1-.18,.06h0Z"/>
        <path class="cls-3" d="M166.47,79.54l-2.76-1.17c-.07-.03-.1-.1-.07-.17,.03-.07,.1-.1,.17-.07l2.77,1.17c.07,.03,.1,.11,.07,.17-.03,.07-.11,.1-.17,.07h0Z"/>
        <path class="cls-3" d="M160.92,77.26l-2.81-1.05c-.07-.02-.1-.09-.08-.16s.1-.1,.16-.08l2.81,1.05c.07,.02,.1,.1,.07,.16-.02,.07-.1,.1-.16,.07h0Z"/>
        <path class="cls-3" d="M155.29,75.21l-2.85-.94c-.06-.02-.1-.09-.08-.15,.02-.06,.09-.1,.15-.08l2.85,.93c.06,.02,.1,.09,.08,.15-.02,.06-.09,.1-.15,.08h0Z"/>
        <path class="cls-3" d="M149.57,73.39l-2.88-.82c-.06-.02-.1-.08-.08-.14,.02-.06,.08-.1,.14-.08l2.89,.82c.06,.02,.1,.08,.08,.15-.02,.06-.08,.1-.15,.08h0Z"/>
        <path class="cls-3" d="M143.79,71.8l-2.91-.71c-.06-.01-.1-.07-.08-.13,.01-.06,.07-.1,.13-.08l2.92,.71c.06,.01,.1,.08,.08,.14-.01,.06-.08,.1-.14,.08h0Z"/>
        <path class="cls-3" d="M137.95,70.43l-2.94-.61c-.06-.01-.1-.07-.08-.12,.01-.06,.07-.1,.13-.08l2.94,.61c.06,.01,.1,.07,.08,.13s-.07,.1-.13,.08h0Z"/>
        <path class="cls-3" d="M132.07,69.26l-2.95-.51c-.06,0-.09-.06-.08-.12,0-.06,.06-.09,.12-.08l2.96,.51c.06,0,.09,.06,.08,.12,0,.06-.06,.09-.12,.08h0Z"/>
        <path class="cls-3" d="M126.15,68.28l-2.97-.42c-.05,0-.09-.05-.08-.11s.06-.09,.11-.08l2.97,.41c.05,0,.09,.06,.08,.11,0,.05-.06,.09-.11,.08h0Z"/>
        <path class="cls-3" d="M120.21,67.5l-2.98-.33c-.05,0-.09-.05-.08-.1,0-.05,.05-.09,.1-.08l2.98,.32c.05,0,.09,.05,.08,.1,0,.05-.05,.09-.1,.08h0Z"/>
        <path class="cls-3" d="M114.24,66.89l-2.99-.24s-.08-.04-.08-.09,.05-.08,.09-.08l2.99,.23s.09,.05,.08,.1c0,.05-.05,.09-.1,.08h0Z"/>
        <path class="cls-3" d="M108.26,66.46l-2.99-.16s-.08-.04-.08-.09c0-.05,.04-.08,.09-.08l3,.15s.08,.04,.08,.09c0,.05-.04,.08-.09,.08h0Z"/>
        <path class="cls-3" d="M102.27,66.18l-3-.08s-.08-.04-.08-.08c0-.04,.04-.08,.08-.08l3,.07s.08,.04,.08,.08-.04,.08-.08,.08h0Z"/>
        <path class="cls-3" d="M96.27,66.06h-3s-.07-.04-.07-.08c0-.04,.03-.07,.07-.07h3s.08,.03,.08,.07c0,.04-.03,.08-.08,.08h0Z"/>
        <path class="cls-3" d="M90.27,66.09l-3,.07s-.07-.03-.07-.07c0-.04,.03-.07,.07-.07l3-.07s.07,.03,.07,.07c0,.04-.03,.07-.07,.07h0Z"/>
        <path class="cls-3" d="M84.28,66.26l-3,.14s-.07-.03-.07-.06,.03-.07,.06-.07l3-.14s.07,.03,.07,.06-.03,.07-.06,.07h0Z"/>
        <path class="cls-3" d="M78.29,66.57l-2.99,.2s-.06-.02-.06-.05c0-.03,.02-.06,.06-.06l2.99-.21s.06,.02,.07,.06c0,.03-.02,.06-.06,.07h0Z"/>
        <path class="cls-3" d="M72.3,67l-2.99,.26s-.06-.02-.06-.05c0-.03,.02-.06,.05-.06l2.99-.27s.06,.02,.06,.05c0,.03-.02,.06-.05,.06h0Z"/>
        <path class="cls-3" d="M66.33,67.55l-2.98,.32s-.05-.02-.06-.04c0-.03,.02-.05,.04-.06l2.98-.33s.05,.02,.06,.05-.02,.05-.05,.06h0Z"/>
        <path class="cls-3" d="M60.37,68.23l-2.98,.38s-.05-.01-.05-.04,.01-.05,.04-.05l2.98-.39s.05,.02,.05,.04c0,.03-.02,.05-.04,.05h0Z"/>
        <path class="cls-3" d="M54.42,69.02l-2.97,.44s-.04-.01-.05-.03c0-.02,.01-.04,.03-.05l2.97-.44s.05,.01,.05,.04c0,.02-.01,.05-.04,.05h0Z"/>
        <path class="cls-3" d="M48.49,69.92l-2.96,.49s-.04,0-.04-.03c0-.02,.01-.04,.03-.04l2.96-.5s.04,.01,.04,.03c0,.02-.01,.04-.03,.04h0Z"/>
        <path class="cls-3" d="M42.58,70.93l-2.95,.54s-.03,0-.04-.03,0-.03,.03-.04l2.95-.55s.04,0,.04,.03c0,.02,0,.04-.03,.04h0Z"/>
        <path class="cls-3" d="M36.68,72.04l-2.94,.6s-.03,0-.03-.02c0-.01,0-.03,.02-.03l2.94-.6s.03,0,.03,.02c0,.02,0,.03-.02,.03h0Z"/>
        <path class="cls-3" d="M30.81,73.26l-2.93,.65s-.02,0-.03-.02c0-.01,0-.02,.02-.03l2.93-.65s.03,0,.03,.02c0,.01,0,.03-.02,.03h0Z"/>
        <path class="cls-3" d="M24.95,74.59l-2.92,.7s-.02,0-.02-.01c0,0,0-.02,.01-.02l2.92-.7s.02,0,.02,.01c0,.01,0,.02-.01,.02h0Z"/>
        <path class="cls-3" d="M19.13,76.01l-2.9,.75s-.01,0-.02,0c0,0,0-.01,0-.02l2.9-.76s.02,0,.02,.01c0,0,0,.02-.01,.02h0Z"/>
        <path class="cls-3" d="M13.33,77.55l-2.89,.81s0,0-.01,0c0,0,0,0,0-.01l2.89-.81s.01,0,.01,0c0,0,0,.01,0,.01h0Z"/>
        <polygon class="cls-3" points="7.56 79.2 4.69 80.07 4.68 80.07 4.68 80.06 7.55 79.19 7.56 79.19 7.56 79.2 7.56 79.2"/>
        <polygon class="cls-3" points="1.83 80.99 .03 81.59 0 81.6 0 81.6 .56 82.51 .56 82.51 0 81.6 0 81.6 .03 81.59 1.83 80.98 1.83 80.99"/>
        <polygon class="cls-3" points="2.21 85.02 3.91 87.49 3.91 87.5 3.9 87.5 3.9 87.5 2.2 85.03 2.2 85.02 2.21 85.02"/>
        <path class="cls-3" d="M5.66,89.92l1.79,2.4s0,.02,0,.02c0,0-.02,0-.02,0h0s-1.79-2.41-1.79-2.41c0,0,0-.01,0-.02s.01,0,.02,0Z"/>
        <path class="cls-3" d="M9.29,94.7l1.87,2.35s0,.02,0,.03c0,0-.02,0-.03,0h0s-1.86-2.35-1.86-2.35c0,0,0-.02,0-.03s.02,0,.03,0Z"/>
        <path class="cls-3" d="M13.05,99.37l1.93,2.29s0,.03,0,.04-.03,0-.04,0h0s-1.93-2.3-1.93-2.3c0-.01,0-.03,0-.04,.01,0,.03,0,.04,0Z"/>
        <path class="cls-3" d="M16.96,103.92l2,2.24s.01,.04,0,.05c-.01,.01-.04,.01-.05,0h0s-1.99-2.24-1.99-2.24c-.01-.01-.01-.03,0-.05,.01-.01,.03-.01,.05,0Z"/>
        <path class="cls-3" d="M20.99,108.37l2.06,2.18s.02,.04,0,.06c-.02,.02-.04,.02-.06,0h0s-2.06-2.18-2.06-2.18c-.01-.02-.01-.04,0-.06s.04-.01,.06,0Z"/>
        <path class="cls-3" d="M25.14,112.7l2.12,2.12s.02,.05,0,.07c-.02,.02-.05,.02-.07,0h0s-2.12-2.13-2.12-2.13c-.02-.02-.02-.05,0-.06,.02-.02,.05-.02,.07,0Z"/>
        <path class="cls-3" d="M29.41,116.91l2.18,2.06s.02,.06,0,.08c-.02,.02-.06,.02-.08,0h0s-2.18-2.07-2.18-2.07c-.02-.02-.02-.05,0-.07s.05-.02,.07,0Z"/>
        <path class="cls-3" d="M33.79,121l2.24,2s.03,.06,0,.09c-.02,.03-.06,.03-.09,0h0s-2.23-2-2.23-2c-.02-.02-.03-.06,0-.08s.06-.03,.08,0Z"/>
        <path class="cls-3" d="M38.29,124.96l2.29,1.93s.03,.07,0,.1-.07,.03-.1,0h0s-2.29-1.94-2.29-1.94c-.03-.02-.03-.07,0-.09,.02-.03,.07-.03,.09,0Z"/>
        <path class="cls-3" d="M42.91,128.79l2.35,1.86s.04,.07,.01,.11c-.03,.03-.07,.04-.11,.01h0s-2.35-1.87-2.35-1.87c-.03-.03-.04-.07-.01-.1,.03-.03,.07-.04,.1-.01Z"/>
        <path class="cls-3" d="M47.63,132.48l2.4,1.79s.05,.08,.02,.12c-.03,.04-.08,.05-.12,.02h0s-2.4-1.8-2.4-1.8c-.04-.03-.04-.08-.02-.11,.03-.04,.08-.04,.11-.02Z"/>
        <path class="cls-3" d="M52.47,136.03l2.46,1.72s.05,.08,.02,.13c-.03,.04-.08,.05-.13,.02h0s-2.46-1.73-2.46-1.73c-.04-.03-.05-.08-.02-.12s.08-.05,.12-.02Z"/>
        <path class="cls-3" d="M57.41,139.43l2.51,1.64s.06,.09,.03,.13c-.03,.05-.09,.06-.13,.03h0s-2.51-1.65-2.51-1.65c-.04-.03-.06-.09-.03-.13,.03-.04,.09-.05,.13-.03Z"/>
        <path class="cls-3" d="M62.45,142.67l2.56,1.56s.07,.09,.04,.14c-.03,.05-.09,.07-.14,.04h0s-2.56-1.57-2.56-1.57c-.05-.03-.06-.09-.03-.14,.03-.05,.09-.06,.14-.03Z"/>
        <path class="cls-3" d="M67.6,145.74l2.61,1.47c.05,.03,.07,.1,.04,.15s-.1,.07-.15,.04h0s-2.61-1.48-2.61-1.48c-.05-.03-.07-.09-.04-.15,.03-.05,.1-.07,.15-.04Z"/>
        <path class="cls-3" d="M72.85,148.64l2.66,1.38c.06,.03,.08,.1,.05,.16-.03,.06-.1,.08-.16,.05h0s-2.66-1.39-2.66-1.39c-.06-.03-.08-.1-.05-.15s.1-.08,.16-.05Z"/>
        <path class="cls-3" d="M78.19,151.37l2.7,1.29c.06,.03,.09,.1,.06,.17-.03,.06-.1,.09-.17,.06h0s-2.71-1.3-2.71-1.3c-.06-.03-.09-.1-.06-.16,.03-.06,.1-.08,.16-.06Z"/>
        <path class="cls-3" d="M83.62,153.91l2.75,1.2c.07,.03,.1,.1,.07,.17-.03,.07-.1,.1-.17,.07h0s-2.75-1.21-2.75-1.21c-.06-.03-.09-.1-.07-.17s.11-.09,.17-.07Z"/>
        <path class="cls-3" d="M89.13,156.25l2.79,1.1c.07,.03,.11,.11,.08,.18-.03,.07-.11,.11-.18,.08h0s-2.79-1.11-2.79-1.11c-.07-.03-.1-.11-.08-.18,.03-.07,.11-.1,.18-.07Z"/>
        <path class="cls-3" d="M94.73,158.4l2.83,1c.08,.03,.12,.11,.09,.18-.03,.08-.11,.12-.18,.09h0s-2.83-1.01-2.83-1.01c-.07-.03-.11-.11-.09-.18,.03-.07,.11-.11,.18-.09Z"/>
        <path class="cls-3" d="M100.4,160.35l2.86,.9c.08,.02,.13,.11,.1,.19-.02,.08-.11,.13-.19,.1h0s-2.86-.91-2.86-.91c-.08-.02-.12-.11-.1-.19,.02-.08,.11-.12,.19-.1Z"/>
        <path class="cls-3" d="M106.13,162.09l2.89,.79c.09,.02,.14,.11,.11,.19-.02,.09-.11,.14-.19,.11h0s-2.89-.8-2.89-.8c-.08-.02-.13-.11-.11-.19s.11-.13,.19-.11Z"/>
        <path class="cls-3" d="M111.93,163.62l2.92,.68c.09,.02,.15,.11,.13,.2-.02,.09-.11,.15-.2,.13h0s-2.92-.69-2.92-.69c-.09-.02-.14-.11-.12-.2,.02-.09,.11-.14,.2-.12Z"/>
        <path class="cls-3" d="M117.78,164.93l2.94,.58c.09,.02,.16,.11,.14,.2-.02,.09-.11,.16-.2,.14h0s-2.94-.58-2.94-.58c-.09-.02-.15-.11-.13-.2,.02-.09,.11-.15,.2-.13Z"/>
        <path class="cls-3" d="M123.67,166.03l2.96,.47c.1,.01,.17,.1,.15,.2-.01,.1-.1,.17-.2,.15h0s-2.97-.48-2.97-.48c-.1-.02-.16-.11-.15-.2,.02-.1,.11-.16,.2-.15Z"/>
        <path class="cls-3" d="M129.6,166.91l2.98,.36c.1,.01,.18,.1,.17,.2s-.1,.18-.2,.17h0s-2.98-.37-2.98-.37c-.1-.01-.17-.1-.16-.2,.01-.1,.11-.17,.21-.16Z"/>
        <path class="cls-3" d="M135.55,167.58l2.98,.3c.11,.01,.18,.1,.17,.21-.01,.11-.1,.18-.21,.17h0s-2.98-.31-2.98-.31c-.1-.01-.18-.1-.17-.21,.01-.1,.1-.18,.21-.17Z"/>
        <path class="cls-3" d="M141.52,168.17l2.99,.27c.11,0,.19,.1,.18,.21,0,.11-.1,.19-.21,.18h0s-2.99-.27-2.99-.27c-.11,0-.19-.1-.18-.21,0-.11,.1-.19,.21-.18Z"/>
        <path class="cls-3" d="M147.49,168.69l2.99,.23c.11,0,.19,.1,.19,.21,0,.11-.1,.19-.21,.19h0s-2.99-.24-2.99-.24c-.11,0-.19-.1-.18-.21,0-.11,.11-.19,.21-.18Z"/>
        <path class="cls-3" d="M153.47,169.13l2.99,.19c.11,0,.2,.1,.19,.22s-.1,.2-.22,.19h0s-2.99-.2-2.99-.2c-.11,0-.2-.1-.19-.22,0-.11,.11-.2,.22-.19Z"/>
        <path class="cls-3" d="M159.46,169.5l2.99,.16c.12,0,.21,.1,.2,.22,0,.12-.1,.21-.22,.2h0s-3-.16-3-.16c-.11,0-.2-.1-.2-.22s.11-.2,.22-.2Z"/>
        <path class="cls-3" d="M165.45,169.79l3,.12c.12,0,.21,.1,.21,.22s-.1,.21-.22,.21h0s-3-.12-3-.12c-.12,0-.21-.1-.2-.22,0-.12,.11-.21,.22-.2Z"/>
        <path class="cls-3" d="M171.44,170.01l3,.08c.12,0,.22,.1,.22,.22,0,.12-.1,.22-.22,.22h0s-3-.08-3-.08c-.12,0-.22-.1-.21-.22,0-.12,.1-.22,.23-.21Z"/>
        <path class="cls-3" d="M177.44,170.14l3,.03c.12,0,.23,.1,.22,.23s-.1,.23-.23,.22h0s-3-.04-3-.04c-.12,0-.22-.1-.22-.23,0-.12,.1-.22,.23-.22Z"/>
        <path class="cls-3" d="M183.43,170.18h3c.13-.01,.23,.09,.23,.22,0,.13-.1,.23-.23,.23h-3c-.13,0-.23-.1-.23-.22,0-.13,.1-.23,.23-.23Z"/>
        <path class="cls-3" d="M189.43,170.14l3-.06c.13,0,.24,.1,.24,.23,0,.13-.1,.24-.23,.24h0s-3,.05-3,.05c-.13,0-.23-.1-.24-.23,0-.13,.1-.23,.23-.24Z"/>
        <path class="cls-3" d="M195.42,170l3-.1c.13,0,.24,.1,.25,.23,0,.13-.1,.24-.23,.25h0s-3,.1-3,.1c-.13,0-.24-.1-.25-.23,0-.13,.1-.24,.23-.25Z"/>
        <path class="cls-3" d="M201.41,169.76l2.99-.15c.14,0,.25,.1,.26,.23,0,.14-.1,.25-.23,.26h0s-3,.15-3,.15c-.13,0-.25-.1-.25-.23,0-.13,.1-.25,.23-.25Z"/>
        <path class="cls-3" d="M207.4,169.43l2.99-.2c.14-.01,.26,.09,.27,.23,.01,.14-.09,.26-.23,.27h0s-3,.2-3,.2c-.14,0-.25-.09-.26-.23,0-.14,.1-.25,.23-.26Z"/>
        <path class="cls-3" d="M213.38,169l2.99-.26c.14-.01,.26,.09,.28,.23,.01,.14-.09,.26-.23,.28h0s-2.99,.25-2.99,.25c-.14,.01-.26-.09-.27-.23-.01-.14,.09-.26,.23-.27Z"/>
        <path class="cls-3" d="M219.35,168.46l2.98-.31c.14-.02,.27,.09,.29,.23,.02,.14-.09,.27-.23,.29h0s-2.99,.31-2.99,.31c-.14,.01-.27-.09-.28-.23-.01-.14,.09-.27,.23-.28Z"/>
        <path class="cls-3" d="M225.31,167.81l2.97-.37c.15-.02,.28,.08,.3,.23,.02,.15-.08,.28-.23,.3h0s-2.98,.36-2.98,.36c-.14,.02-.27-.09-.29-.23s.09-.28,.23-.29Z"/>
        <path class="cls-3" d="M231.26,167.05l2.97-.42c.15-.02,.29,.08,.31,.23,.02,.15-.08,.29-.23,.31h0s-2.97,.42-2.97,.42c-.15,.02-.28-.08-.3-.23-.02-.15,.08-.28,.23-.3Z"/>
        <path class="cls-3" d="M237.19,166.18l2.96-.48c.15-.03,.29,.07,.32,.22,.03,.15-.07,.29-.22,.32h0s-2.96,.48-2.96,.48c-.15,.02-.29-.08-.31-.23-.02-.15,.08-.29,.23-.31Z"/>
        <path class="cls-3" d="M243.1,165.19l2.95-.54c.15-.03,.3,.07,.33,.22,.03,.15-.07,.3-.22,.33h0s-2.95,.54-2.95,.54c-.15,.03-.3-.07-.32-.22-.03-.15,.07-.3,.23-.32Z"/>
        <path class="cls-3" d="M248.99,164.08l2.94-.6c.15-.03,.31,.06,.34,.22s-.06,.31-.22,.34h0s-2.94,.6-2.94,.6c-.15,.03-.3-.07-.33-.22-.03-.15,.07-.3,.22-.33Z"/>
        <path class="cls-3" d="M254.85,162.85l2.92-.66c.16-.04,.31,.06,.35,.21s-.06,.31-.21,.35h0s-2.93,.66-2.93,.66c-.15,.03-.31-.06-.34-.22s.06-.31,.22-.34Z"/>
        <path class="cls-3" d="M260.69,161.49l2.91-.72c.16-.04,.32,.05,.36,.21,.04,.16-.05,.32-.21,.36h0s-2.91,.72-2.91,.72c-.16,.04-.31-.06-.35-.21-.04-.16,.06-.32,.22-.35Z"/>
        <path class="cls-3" d="M266.49,160.01l2.89-.79c.16-.05,.32,.05,.37,.21,.05,.16-.05,.32-.21,.37h0s-2.9,.79-2.9,.79c-.16,.04-.32-.05-.36-.21-.04-.16,.05-.32,.21-.36Z"/>
        <path class="cls-3" d="M272.26,158.4l2.87-.85c.16-.05,.33,.04,.38,.2,.05,.16-.04,.33-.2,.38h0s-2.88,.85-2.88,.85c-.16,.05-.33-.04-.38-.2-.05-.16,.05-.33,.21-.38Z"/>
        <path class="cls-3" d="M278,156.66l2.85-.92c.16-.05,.34,.03,.39,.19,.05,.16-.03,.34-.2,.39h0s-2.86,.92-2.86,.92c-.16,.05-.33-.04-.39-.2-.05-.16,.04-.33,.2-.39Z"/>
        <path class="cls-3" d="M283.69,154.79l2.83-.98c.16-.06,.34,.03,.4,.19,.06,.16-.03,.34-.19,.4h0s-2.84,.98-2.84,.98c-.16,.06-.34-.03-.4-.19-.06-.16,.03-.34,.2-.4Z"/>
        <path class="cls-3" d="M289.34,152.79l2.81-1.05c.16-.06,.35,.02,.41,.18,.06,.16-.02,.35-.18,.41h0s-2.81,1.05-2.81,1.05c-.16,.06-.35-.02-.41-.19-.06-.16,.03-.35,.19-.41Z"/>
        <path class="cls-3" d="M294.94,150.65l2.78-1.12c.17-.07,.35,0,.42,.17,.07,.17,0,.35-.17,.42h0s-2.79,1.12-2.79,1.12c-.16,.07-.35-.01-.42-.18-.07-.16,.02-.35,.18-.42Z"/>
        <path class="cls-3" d="M300.48,148.38l2.75-1.18c.17-.07,.36,0,.43,.17,.07,.17,0,.36-.17,.43h0s-2.76,1.18-2.76,1.18c-.17,.07-.36,0-.43-.17s0-.36,.17-.43Z"/>
        <path class="cls-3" d="M305.97,145.98l2.72-1.25c.17-.08,.37,0,.44,.16,.08,.17,0,.37-.16,.44h0s-2.73,1.25-2.73,1.25c-.17,.08-.36,0-.44-.16-.08-.17,0-.36,.17-.44Z"/>
        <path class="cls-3" d="M311.4,143.45l2.69-1.32c.17-.08,.37-.02,.45,.15s.02,.37-.15,.45h0s-2.7,1.32-2.7,1.32c-.17,.08-.37,.01-.45-.15s0-.37,.16-.45Z"/>
        <path class="cls-3" d="M316.76,140.78l2.66-1.38c.17-.09,.38-.03,.47,.14,.09,.17,.03,.38-.14,.47h0s-2.67,1.38-2.67,1.38c-.17,.09-.37,.02-.46-.15-.09-.17-.02-.37,.15-.46Z"/>
        <path class="cls-3" d="M322.06,137.98l2.62-1.45c.17-.1,.38-.04,.48,.13s.04,.38-.13,.48h0s-2.63,1.45-2.63,1.45c-.17,.09-.38,.03-.47-.14-.09-.17-.03-.38,.14-.47Z"/>
        <path class="cls-3" d="M327.29,135.05l2.59-1.51c.17-.1,.38-.05,.48,.12,.1,.17,.05,.38-.12,.48h0s-2.6,1.51-2.6,1.51c-.17,.1-.38,.04-.48-.13-.1-.17-.04-.38,.13-.48Z"/>
        <path class="cls-3" d="M332.44,132l2.55-1.57c.17-.11,.39-.06,.49,.11,.11,.17,.06,.39-.11,.49h0s-2.56,1.58-2.56,1.58c-.17,.1-.39,.05-.49-.12-.1-.17-.05-.39,.12-.49Z"/>
        <path class="cls-3" d="M337.52,128.82l2.51-1.64c.17-.11,.39-.07,.5,.1,.11,.17,.07,.39-.1,.5h0s-2.52,1.64-2.52,1.64c-.17,.11-.39,.06-.5-.11-.11-.17-.06-.39,.11-.5Z"/>
        <path class="cls-3" d="M342.52,125.51l2.47-1.7c.17-.12,.4-.08,.51,.09,.12,.17,.08,.4-.09,.51h0s-2.48,1.7-2.48,1.7c-.17,.11-.39,.07-.51-.09s-.07-.4,.1-.51Z"/>
        <path class="cls-3" d="M347.43,122.09l2.43-1.76c.17-.12,.4-.09,.52,.08s.09,.4-.08,.52h0s-2.44,1.76-2.44,1.76c-.17,.12-.4,.08-.52-.08-.12-.17-.08-.4,.09-.52Z"/>
        <path class="cls-3" d="M352.26,118.55l2.38-1.81c.16-.13,.4-.1,.53,.07,.13,.16,.1,.4-.07,.53h0s-2.39,1.82-2.39,1.82c-.17,.13-.4,.09-.53-.07-.13-.17-.09-.4,.08-.53Z"/>
        <path class="cls-3" d="M357.01,114.89l2.34-1.87c.16-.13,.4-.11,.54,.05,.13,.16,.11,.4-.05,.54h0s-2.35,1.87-2.35,1.87c-.16,.13-.4,.1-.53-.06-.13-.16-.1-.41,.06-.54Z"/>
        <path class="cls-3" d="M361.67,111.13l2.3-1.92c.16-.14,.41-.12,.55,.04,.14,.16,.12,.41-.04,.55h0s-2.31,1.93-2.31,1.93c-.16,.14-.41,.11-.54-.05-.14-.16-.11-.41,.05-.55Z"/>
        <path class="cls-3" d="M366.23,107.26l2.25-1.98c.16-.14,.41-.13,.55,.03,.14,.16,.13,.41-.03,.55h0s-2.26,1.98-2.26,1.98c-.16,.14-.41,.13-.55-.04-.14-.16-.12-.41,.04-.55Z"/>
        <path class="cls-3" d="M370.71,103.28l2.21-2.03c.16-.15,.41-.14,.56,.02,.15,.16,.14,.41-.02,.56h0s-2.22,2.03-2.22,2.03c-.16,.15-.41,.14-.56-.02-.15-.16-.13-.41,.03-.56Z"/>
        <path class="cls-3" d="M375.1,99.2l2.16-2.07c.16-.16,.41-.15,.57,0,.16,.16,.15,.41,0,.57h0s-2.17,2.08-2.17,2.08c-.16,.15-.41,.15-.57-.01-.15-.16-.14-.42,.02-.57Z"/>
        <path class="cls-3" d="M379.4,95.03l2.11-2.12c.16-.16,.42-.16,.58,0,.16,.16,.16,.42,0,.58h0s-2.12,2.13-2.12,2.13c-.16,.16-.41,.16-.57,0s-.16-.42,0-.58Z"/>
        <path class="cls-3" d="M383.61,90.77l2.07-2.17c.16-.17,.42-.17,.58-.02,.17,.16,.17,.42,.02,.58h0s-2.08,2.17-2.08,2.17c-.16,.16-.42,.17-.58,.01-.16-.16-.17-.42,0-.58Z"/>
        <path class="cls-3" d="M387.73,86.42l2.02-2.21c.15-.17,.42-.19,.59-.03,.17,.15,.19,.42,.03,.59h0s-2.03,2.21-2.03,2.21c-.16,.17-.42,.18-.59,.02s-.18-.42-.02-.59Z"/>
        <path class="cls-3" d="M391.75,81.98l1.98-2.25c.15-.18,.42-.2,.6-.04,.18,.15,.2,.42,.04,.6h0s-1.99,2.26-1.99,2.26c-.15,.17-.42,.19-.59,.04-.17-.15-.19-.42-.03-.6Z"/>
        <path class="cls-3" d="M395.69,77.46l1.93-2.29c.15-.18,.42-.21,.6-.06s.21,.42,.06,.6h0s-1.94,2.29-1.94,2.29c-.15,.18-.42,.2-.6,.05s-.2-.42-.05-.6Z"/>
        <path class="cls-3" d="M399.53,72.87l1.89-2.33c.15-.19,.42-.22,.61-.07,.19,.15,.22,.42,.07,.61h0s-1.9,2.33-1.9,2.33c-.15,.18-.42,.21-.6,.06-.18-.15-.21-.42-.06-.61Z"/>
        <path class="cls-3" d="M403.29,68.2l1.84-2.36c.15-.19,.42-.23,.61-.08s.23,.42,.08,.61h0s-1.85,2.37-1.85,2.37c-.15,.19-.42,.22-.61,.07-.19-.15-.22-.42-.07-.61Z"/>
        <path class="cls-3" d="M406.95,63.46l1.8-2.39c.14-.2,.42-.24,.62-.09,.2,.14,.24,.42,.09,.62h0s-1.81,2.4-1.81,2.4c-.15,.19-.42,.23-.62,.09-.19-.15-.23-.42-.08-.62Z"/>
        <path class="cls-3" d="M410.53,58.66l1.76-2.43c.14-.2,.42-.25,.62-.11s.25,.42,.11,.62h0s-1.77,2.43-1.77,2.43c-.14,.2-.42,.24-.62,.1-.2-.14-.24-.42-.1-.62Z"/>
        <path class="cls-3" d="M414.03,53.79l1.72-2.46c.14-.21,.42-.26,.63-.12,.21,.14,.26,.42,.12,.63h0s-1.72,2.46-1.72,2.46c-.14,.2-.42,.25-.63,.11-.2-.14-.25-.43-.11-.63Z"/>
        <path class="cls-3" d="M417.44,48.86l1.67-2.48c.14-.21,.42-.27,.63-.13s.27,.42,.13,.63h0s-1.68,2.49-1.68,2.49c-.14,.21-.42,.26-.63,.12s-.26-.43-.12-.63Z"/>
        <path class="cls-3" d="M420.76,43.88l1.63-2.51c.14-.21,.42-.28,.64-.14,.21,.14,.28,.42,.14,.64h0s-1.64,2.52-1.64,2.52c-.14,.21-.42,.27-.64,.13-.21-.14-.27-.43-.13-.64Z"/>
        <path class="cls-3" d="M424.01,38.84l1.59-2.54c.14-.22,.42-.29,.64-.15,.22,.14,.29,.42,.15,.64h0s-1.6,2.55-1.6,2.55c-.14,.22-.42,.28-.64,.15s-.28-.43-.14-.64Z"/>
        <path class="cls-3" d="M427.17,33.75l1.55-2.56c.13-.22,.42-.3,.65-.16,.22,.13,.3,.42,.16,.65h0s-1.56,2.57-1.56,2.57c-.13,.22-.42,.29-.64,.16s-.29-.43-.16-.65Z"/>
        <path class="cls-3" d="M430.26,28.62l1.51-2.59c.13-.23,.42-.31,.65-.18,.23,.13,.31,.42,.18,.65h0s-1.52,2.59-1.52,2.59c-.13,.23-.42,.3-.65,.17s-.3-.43-.17-.65Z"/>
        <path class="cls-3" d="M433.26,23.43l1.48-2.61c.13-.23,.42-.32,.65-.19s.32,.42,.19,.65h0s-1.48,2.62-1.48,2.62c-.13,.23-.42,.31-.65,.18-.23-.13-.31-.43-.18-.65Z"/>
        <path class="cls-3" d="M436.2,18.21l1.44-2.63c.13-.24,.42-.32,.66-.2,.24,.13,.32,.42,.2,.66h0s-1.45,2.64-1.45,2.64c-.13,.23-.42,.32-.66,.19-.23-.13-.32-.42-.19-.66Z"/>
        <path class="cls-3" d="M439.05,12.94l1.4-2.65c.13-.24,.42-.33,.66-.21s.33,.42,.21,.66h0s-1.41,2.66-1.41,2.66c-.13,.24-.42,.33-.66,.2-.24-.13-.33-.42-.2-.66Z"/>
        <path class="cls-3" d="M441.84,7.63l1.37-2.67c.12-.24,.42-.34,.67-.22s.34,.42,.22,.67h0s-1.37,2.67-1.37,2.67c-.12,.24-.42,.34-.66,.21-.24-.12-.34-.42-.21-.67Z"/>
        <path class="cls-3" d="M444.55,2.29l1-2.01c.12-.25,.42-.35,.67-.23,.25,.12,.35,.42,.23,.67h0s-1,2.02-1,2.02c-.12,.25-.42,.35-.67,.22-.25-.12-.35-.42-.22-.67Z"/>
      </g>
      <g>
        <g>
          <path class="cls-1" d="M32.14,125.31c-3.68,0-5.97-2.16-5.97-5.63v-40.8c0-1.74,.49-3.2,1.46-4.32,1.05-1.21,2.47-1.85,4.1-1.85h11.36c7.85,0,13.96,2.07,18.16,6.15,4.23,4.1,6.37,10.47,6.37,18.93,0,22.75-12.97,27.52-23.85,27.52h-11.63Zm12.09-17.26c1.11-.19,1.92-.72,2.55-1.63,.68-.98,1.49-3.14,1.49-7.86,0-5.05-.96-6.39-1.26-6.68-.58-.57-1.53-.95-2.78-1.13v17.3Z"/>
          <path class="cls-2" d="M43.09,75.21c7.21,0,12.68,1.81,16.42,5.44,3.74,3.63,5.61,9.34,5.61,17.14,0,16.68-7.12,25.02-21.35,25.02h-11.63c-2.31,0-3.47-1.04-3.47-3.13v-40.8c0-1.13,.28-2.03,.85-2.69,.57-.66,1.3-.99,2.21-.99h11.36m.07,35.43c2.49,0,4.39-.93,5.68-2.79,1.29-1.86,1.94-4.95,1.94-9.28s-.67-7.15-2.01-8.47c-1.34-1.31-3.46-1.97-6.36-1.97h-.68v20.33c0,.95,.07,1.55,.2,1.8,.14,.25,.54,.37,1.22,.37m-.07-40.43h-11.36c-2.35,0-4.48,.97-6,2.72-.94,1.09-2.06,3.01-2.06,5.95v40.8c0,4.86,3.4,8.13,8.47,8.13h11.63c8.61,0,15.28-2.7,19.82-8.01,4.34-5.08,6.53-12.49,6.53-22.01s-2.4-16.14-7.13-20.72c-4.69-4.55-11.39-6.85-19.9-6.85h0Z"/>
        </g>
        <g>
          <path class="cls-1" d="M73.14,125.31c-3.75,0-5.08-2.48-5.08-4.61v-43.72c0-2.55,1.63-4.27,4.06-4.27h24.34c3.93,0,3.93,5.54,3.93,8.52s0,8.52-3.93,8.52h-10.08v1.87h6.27c3.79,0,3.79,5.09,3.79,7.26,0,1.09-.11,2.32-.34,3.76-.56,3.52-2.49,4.05-3.59,4.05h-6.14v1.8h10.01c1.52,0,3.46,.89,4.04,5.15,.15,.93,.23,1.99,.23,3.09s-.15,2.51-.45,4.21c-.64,3.62-2.43,4.38-3.82,4.38h-23.26Z"/>
          <path class="cls-2" d="M96.47,75.21c.95,0,1.43,2.01,1.43,6.02s-.48,6.02-1.43,6.02h-12.58v6.87h8.77c.86,0,1.29,1.59,1.29,4.76,0,.95-.1,2.07-.31,3.37-.2,1.29-.58,1.94-1.12,1.94h-8.64v6.8h12.51c.77,0,1.29,1,1.56,2.99,.14,.86,.2,1.78,.2,2.75s-.14,2.23-.41,3.77-.73,2.31-1.36,2.31h-23.26c-1.72,0-2.58-.7-2.58-2.11v-43.72c0-1.18,.52-1.77,1.56-1.77h24.34m0-5h-24.34c-3.8,0-6.56,2.85-6.56,6.77v43.72c0,4.19,3.12,7.11,7.58,7.11h23.26c1.21,0,5.23-.46,6.28-6.44,.33-1.84,.48-3.36,.48-4.64,0-1.21-.09-2.38-.26-3.48-.74-5.29-3.44-6.77-5.33-7.15,.45-.8,.8-1.81,1-3.08,.25-1.57,.37-2.92,.37-4.15,0-2.08-.16-3.63-.5-4.88-.19-.72-.46-1.34-.77-1.88,1.94-.44,3.94-1.96,4.72-5.21,.34-1.41,.49-3.22,.49-5.67s-.16-4.25-.49-5.67c-.94-3.94-3.68-5.35-5.94-5.35h0Z"/>
        </g>
        <g>
          <path class="cls-1" d="M123.26,125.99c-6.69,0-12.27-2.4-16.6-7.14-4.27-4.67-6.43-11.25-6.43-19.54s2.22-14.95,6.59-19.8c4.44-4.92,10.07-7.42,16.71-7.42,3.59,0,6.82,.52,9.6,1.55,4.47,1.65,5.41,4.24,5.41,6.12,0,2.01-.68,4.31-2.08,7.03-1.24,2.4-2.83,4.86-5.25,4.86-.8,0-1.57-.29-2.29-.88-.11-.05-.44-.19-1.2-.4-1.05-.29-1.71-.35-2.08-.35-1.91,0-3.33,.61-4.47,1.92-1.2,1.38-1.8,3.7-1.8,6.9s.62,5.49,1.85,6.87c1.19,1.33,2.59,1.95,4.42,1.95,.85,0,1.84-.13,2.94-.38,1.22-.28,1.54-.58,1.54-.59,.58-.58,1.36-.87,2.31-.87,1.55,0,2.56,1.21,3.55,2.55,.89,1.21,1.67,2.71,2.39,4.59,.76,1.99,1.12,3.5,1.12,4.74,0,1.99-.99,4.75-5.69,6.55-3,1.15-6.55,1.73-10.55,1.73Z"/>
          <path class="cls-2" d="M123.53,74.59c3.31,0,6.22,.46,8.74,1.39s3.77,2.19,3.77,3.77-.6,3.55-1.8,5.88c-1.2,2.33-2.21,3.5-3.03,3.5-.23,0-.49-.12-.78-.37-.3-.25-.98-.52-2.04-.82-1.07-.29-1.98-.44-2.75-.44-2.63,0-4.75,.93-6.36,2.79-1.61,1.86-2.41,4.7-2.41,8.53s.83,6.68,2.48,8.53c1.65,1.86,3.75,2.79,6.29,2.79,1.04,0,2.21-.15,3.5-.44,1.29-.29,2.21-.71,2.75-1.26,.09-.09,.27-.13,.54-.13s.78,.51,1.53,1.53,1.44,2.36,2.07,4.01c.63,1.66,.95,2.94,.95,3.84,0,1.77-1.36,3.17-4.08,4.22-2.72,1.04-5.94,1.56-9.66,1.56-5.98,0-10.9-2.11-14.76-6.32-3.85-4.22-5.78-10.17-5.78-17.85s1.98-13.72,5.95-18.12c3.97-4.4,8.92-6.6,14.86-6.6m0-5c-7.39,0-13.63,2.77-18.57,8.25-4.8,5.32-7.24,12.55-7.24,21.47s2.39,16.08,7.09,21.22c4.82,5.28,11.03,7.95,18.45,7.95,4.31,0,8.16-.64,11.44-1.9,6.34-2.43,7.29-6.61,7.29-8.89,0-1.56-.41-3.34-1.28-5.63-.81-2.1-1.69-3.79-2.71-5.18-.92-1.25-2.62-3.57-5.56-3.57-1.82,0-3.05,.69-3.81,1.35-.1,.04-.3,.1-.6,.17-.92,.21-1.73,.32-2.39,.32-1.11,0-1.85-.32-2.55-1.11-.79-.88-1.22-2.73-1.22-5.21,0-3.38,.75-4.75,1.19-5.26,.48-.55,1.12-1.06,2.58-1.06,.11,0,.55,.02,1.42,.26,.29,.08,.49,.14,.62,.19,1.34,.96,2.64,1.18,3.53,1.18,4.27,0,6.51-4.35,7.47-6.21,1.59-3.08,2.36-5.75,2.36-8.17,0-2.19-.91-6.2-7.04-8.46-3.06-1.13-6.58-1.7-10.47-1.7h0Z"/>
        </g>
        <g>
          <path class="cls-1" d="M169.6,125.71l-1.94-.16-.2-.05c-2.12-.53-3.84-1.92-4.99-4.02l-4.15-7.93v8.29c0,3.52-4.72,3.52-8.89,3.52l-3.94-.21c-2.06-.16-5.77-.46-5.77-3.45v-45.63c0-3.66,5.16-3.66,9.3-3.66s9.3,0,9.3,3.66v6.35l3.54-7.43c1-2,3.57-2.38,7.7-2.38,8.15,0,11.15,.84,11.91,3.33l.11,.36v.37c0,.47-.11,.93-.32,1.37l-.06,.11-11.06,19.96,13.28,18.34v.81c0,1.33-.83,2-2.2,3.08-2.29,1.98-5.01,3.57-8.07,4.7-1.15,.42-2.3,.63-3.45,.63h-.1Z"/>
          <path class="cls-2" d="M149.03,74.93c4.53,0,6.8,.39,6.8,1.16v17.41l8.3-17.41c.32-.63,2.13-.95,5.44-.95,6.03,0,9.2,.52,9.52,1.56,0,.09-.02,.18-.07,.27l-11.83,21.35,13.74,18.97c0,.09-.43,.48-1.29,1.16-2.09,1.81-4.53,3.24-7.34,4.29-.86,.32-1.72,.48-2.58,.48l-1.63-.14c-1.45-.36-2.58-1.29-3.4-2.79l-7.75-14.82h-1.09v16.39c0,.68-2.13,1.02-6.39,1.02l-3.81-.2c-2.27-.18-3.4-.5-3.4-.95v-45.63c0-.77,2.27-1.16,6.8-1.16m0-5c-2.57,0-4.51,.12-5.94,.36-5.44,.92-5.86,4.67-5.86,5.8v45.63c0,2,1.18,4.46,4.5,5.39,.9,.25,2.01,.42,3.5,.54h.07s.07,0,.07,0l3.81,.2h.13s.13,0,.13,0c2.42,0,4.24-.1,5.58-.32,3.88-.62,5.19-2.72,5.61-4.27,1.48,2.39,3.62,3.99,6.22,4.64l.39,.1,.41,.03,1.63,.14,.21,.02h.21c1.44,0,2.89-.26,4.31-.78,3.34-1.24,6.3-2.96,8.81-5.12,1.47-1.17,3.1-2.5,3.1-5.01v-1.62l-.95-1.31-11.87-16.4,10.29-18.57,.06-.11,.06-.11c.38-.78,.58-1.61,.58-2.47v-.74l-.22-.71c-1.44-4.72-7.33-5.11-14.3-5.11-3.81,0-7.67,.25-9.55,3.09-.77-1.23-2.24-2.46-5.04-2.94-1.42-.24-3.37-.36-5.94-.36h0Z"/>
        </g>
        <g>
          <path class="cls-1" d="M204.62,125.99c-7.05,0-12.89-2.36-17.37-7.02-4.46-4.63-6.72-11.36-6.72-19.99s2.29-15.35,6.8-19.94c4.53-4.6,10.41-6.93,17.49-6.93s12.92,2.3,17.33,6.84c4.4,4.52,6.62,11.31,6.62,20.17s-2.28,15.65-6.79,20.13c-4.5,4.48-10.35,6.75-17.37,6.75Zm.03-35.84c-.86,0-2.15,.21-3.46,1.98-1.14,1.55-1.72,3.87-1.72,6.91s.55,5.34,1.63,6.82c.94,1.29,2.03,1.86,3.52,1.86s2.6-.59,3.56-1.9c1.1-1.5,1.66-3.82,1.66-6.89s-.57-5.36-1.7-6.86c-1.31-1.73-2.61-1.93-3.48-1.93Z"/>
          <path class="cls-2" d="M204.82,74.59c6.41,0,11.59,2.03,15.54,6.09,3.94,4.06,5.92,10.2,5.92,18.43s-2.02,14.35-6.05,18.36c-4.04,4.01-9.24,6.02-15.61,6.02s-11.56-2.09-15.57-6.26c-4.01-4.17-6.02-10.26-6.02-18.26s2.03-14.06,6.09-18.19c4.06-4.12,9.29-6.19,15.71-6.19m-.2,35.63c2.29,0,4.15-.97,5.58-2.92,1.43-1.95,2.14-4.74,2.14-8.36s-.74-6.41-2.21-8.36c-1.47-1.95-3.3-2.92-5.47-2.92s-4,1-5.47,2.99c-1.47,2-2.21,4.79-2.21,8.4s.7,6.37,2.11,8.3c1.4,1.93,3.25,2.89,5.54,2.89m.2-40.63c-7.77,0-14.26,2.58-19.27,7.68-4.99,5.08-7.52,12.37-7.52,21.7s2.49,16.61,7.42,21.72c4.97,5.17,11.42,7.79,19.17,7.79s14.14-2.51,19.13-7.47c4.99-4.97,7.53-12.34,7.53-21.91s-2.47-16.91-7.33-21.91c-4.9-5.04-11.34-7.6-19.12-7.6h0Zm-.2,35.63c-.61,0-.98-.12-1.5-.83-.74-1.02-1.15-2.92-1.15-5.35s.43-4.34,1.23-5.43c.71-.96,1.16-.96,1.45-.96,.33,0,.78,0,1.49,.94,.78,1.04,1.2,2.89,1.2,5.35,0,3.15-.64,4.68-1.18,5.41-.6,.81-1.03,.88-1.54,.88h0Z"/>
        </g>
        <g>
          <path class="cls-1" d="M250.04,125.99c-6.4,0-11.71-1.71-15.8-5.1-4.23-3.5-6.38-8.25-6.38-14.13v-30.12c0-3.86,5.71-3.86,9.88-3.86s9.88,0,9.88,3.86v30.56s.09,.07,.17,.11c.59,.32,1.22,.49,1.89,.49s1.22-.14,1.73-.42c.07-.04,.1-.07,.1-.07l-.04-30.74c0-3.86,5.71-3.86,9.88-3.86s9.88,0,9.88,3.86v31.21c0,5.35-1.95,9.79-5.81,13.2-3.77,3.33-8.93,5.01-15.36,5.01Z"/>
          <path class="cls-2" d="M261.33,75.21c4.92,0,7.38,.45,7.38,1.36v31.21c0,4.62-1.66,8.4-4.96,11.32-3.31,2.92-7.88,4.39-13.7,4.39s-10.56-1.51-14.21-4.52c-3.65-3.01-5.47-7.08-5.47-12.21v-30.12c0-.91,2.46-1.36,7.38-1.36s7.38,.45,7.38,1.36v30.67c0,.91,.48,1.63,1.43,2.18,1,.54,2.04,.82,3.13,.82s2.07-.25,2.96-.75c.88-.5,1.33-1.25,1.33-2.24v-30.74c0-.91,2.46-1.36,7.38-1.36m0-5c-2.79,0-4.9,.14-6.44,.42-3.21,.59-4.69,2.12-5.37,3.52-.7-1.38-2.18-2.87-5.34-3.45-1.54-.28-3.65-.42-6.44-.42s-4.9,.14-6.44,.42c-5.51,1.02-5.94,4.8-5.94,5.94v30.12c0,6.57,2.52,12.12,7.29,16.06,4.55,3.76,10.4,5.67,17.4,5.67s12.78-1.9,17.01-5.64c4.42-3.9,6.65-8.97,6.65-15.07v-31.21c0-1.14-.43-4.92-5.94-5.94-1.54-.28-3.65-.42-6.44-.42h0Z"/>
        </g>
        <g>
          <path class="cls-1" d="M292.4,125.35c-1.36,0-2.68-.05-3.94-.15-4.09-.32-6.58-.94-7.21-3.14l-11.99-45.65v-.32c0-2.59,2.76-2.88,5.2-3.13,2.08-.21,3.76-.32,5.12-.32,5.01,0,9.74,.49,10.35,4.04l3.31,16.94,3.12-16.96c.73-3.54,5.67-4.02,10.89-4.02,1.38,0,3.13,.09,5.19,.28,2.47,.22,5.27,.48,5.27,3.1v.33l-12.12,45.33c-.69,2.77-4.41,3.11-6.2,3.27-2.43,.26-4.8,.39-6.99,.39Z"/>
          <path class="cls-2" d="M307.26,75.14c1.31,0,2.97,.09,4.96,.27,1.99,.18,2.99,.38,2.99,.61l-12.04,45.02c-.18,.73-1.52,1.2-4.01,1.43-2.39,.25-4.65,.38-6.77,.38-1.3,0-2.54-.05-3.74-.14-3.15-.25-4.82-.69-5-1.33l-11.9-45.29c0-.23,.99-.44,2.96-.65,1.97-.2,3.59-.31,4.86-.31,5.03,0,7.66,.66,7.89,1.97l5.85,29.92,5.51-29.92c.27-1.31,3.08-1.97,8.43-1.97m0-5c-4.23,0-12.1,0-13.33,5.96v.05s-.02,.05-.02,.05l-.74,4.01-.79-4.02c-1.11-6.05-9-6.05-12.8-6.05-1.45,0-3.21,.11-5.37,.33-1.2,.12-2.08,.25-2.77,.4-4.45,.97-4.67,4.52-4.67,5.22v.65l.16,.62,11.9,45.29v.05s.03,.05,.03,.05c1.22,4.3,6.35,4.7,9.42,4.95,1.32,.1,2.71,.16,4.13,.16,2.27,0,4.72-.14,7.26-.4,2.01-.18,7.21-.68,8.36-5.14l12.03-44.99,.17-.63v-.66c0-.71-.23-4.3-4.75-5.22-.69-.14-1.58-.26-2.79-.37-2.17-.2-3.94-.29-5.42-.29h0Z"/>
        </g>
        <g>
          <path class="cls-1" d="M321.95,125.31c-3.75,0-5.08-2.48-5.08-4.61v-43.72c0-2.55,1.63-4.27,4.06-4.27h24.34c3.93,0,3.93,5.54,3.93,8.52s0,8.52-3.93,8.52h-10.08v1.87h6.27c3.79,0,3.79,5.09,3.79,7.26,0,1.09-.11,2.32-.34,3.76-.56,3.52-2.49,4.05-3.59,4.05h-6.14v1.8h10.01c1.52,0,3.46,.89,4.04,5.15,.15,.93,.23,1.99,.23,3.09s-.15,2.51-.45,4.21c-.64,3.62-2.43,4.38-3.82,4.38h-23.26Z"/>
          <path class="cls-2" d="M345.27,75.21c.95,0,1.43,2.01,1.43,6.02s-.48,6.02-1.43,6.02h-12.58v6.87h8.77c.86,0,1.29,1.59,1.29,4.76,0,.95-.1,2.07-.31,3.37-.2,1.29-.58,1.94-1.12,1.94h-8.64v6.8h12.51c.77,0,1.29,1,1.56,2.99,.14,.86,.2,1.78,.2,2.75s-.14,2.23-.41,3.77-.73,2.31-1.36,2.31h-23.26c-1.72,0-2.58-.7-2.58-2.11v-43.72c0-1.18,.52-1.77,1.56-1.77h24.34m0-5h-24.34c-3.8,0-6.56,2.85-6.56,6.77v43.72c0,4.19,3.12,7.11,7.58,7.11h23.26c1.21,0,5.23-.46,6.28-6.44,.33-1.84,.48-3.36,.48-4.64,0-1.21-.09-2.38-.26-3.48-.74-5.29-3.44-6.77-5.33-7.15,.45-.8,.8-1.81,1-3.08,.25-1.57,.37-2.92,.37-4.15,0-2.08-.16-3.63-.5-4.88-.19-.72-.46-1.34-.77-1.88,1.94-.44,3.94-1.96,4.72-5.21,.34-1.41,.49-3.22,.49-5.67s-.16-4.25-.49-5.67c-.94-3.94-3.68-5.35-5.94-5.35h0Z"/>
        </g>
        <g>
          <path class="cls-1" d="M378.32,125.71c-3.29,0-5.09-1.63-6.01-3l-.13-.2-3.8-8.84v8.18c0,3.59-4.97,3.59-8.96,3.59-4.23,0-9.03,0-9.03-3.52v-44.34c0-2.96,1.97-4.88,5.02-4.88h12.99c16.85,0,20.38,8.94,20.38,16.44,0,3.17-.63,6.11-1.87,8.72-.92,1.93-2.13,3.6-3.62,4.98l8.04,13.4-.36,1.09c-.55,1.65-1.97,3.23-4.47,4.99-3.17,2.27-5.85,3.38-8.17,3.38Zm-9.94-31.01c1.8-.5,1.8-1.7,1.8-2.63,0-.51-.06-1.43-.48-1.82-.09-.09-.43-.33-1.32-.44v4.9Z"/>
          <path class="cls-2" d="M368.39,75.21c11.92,0,17.88,4.65,17.88,13.94,0,2.81-.54,5.36-1.63,7.65-1.09,2.29-2.63,4.11-4.62,5.47l8.57,14.28c-.36,1.09-1.54,2.33-3.54,3.74-2.72,1.95-4.96,2.92-6.73,2.92s-3.08-.63-3.94-1.9l-6.39-14.89h-2.11v15.44c0,.73-2.15,1.09-6.46,1.09s-6.53-.34-6.53-1.02v-44.34c0-1.59,.84-2.38,2.52-2.38h12.99m-2.52,22.24h.34c4.31,0,6.46-1.79,6.46-5.37,0-1.63-.42-2.84-1.26-3.64-.84-.79-2.21-1.19-4.11-1.19h-1.43v10.2m2.52-27.24h-12.99c-4.43,0-7.52,3.04-7.52,7.38v44.34c0,1.12,.42,4.86,5.86,5.7,1.36,.21,3.21,.31,5.67,.31s4.31-.11,5.67-.34c3.12-.52,4.56-2,5.23-3.36,1.8,2.57,4.63,3.98,8,3.98,2.87,0,6.02-1.26,9.65-3.86,2.92-2.06,4.64-4.04,5.37-6.22l.73-2.18-1.18-1.97-6.46-10.77c1.08-1.26,2-2.69,2.75-4.26,1.4-2.95,2.12-6.25,2.12-9.8,0-7.07-2.97-18.94-22.88-18.94h0Z"/>
        </g>
        <g>
          <path class="cls-1" d="M406.75,125.58c-3.68,0-9.23,0-9.23-3.86v-31.64h-5.66c-2.19,0-3.57-1.77-4.1-5.25-.16-1.14-.23-2.28-.23-3.44s.08-2.29,.23-3.4c.54-3.52,1.92-5.29,4.11-5.29h29.58c2.19,0,3.57,1.77,4.1,5.25,.16,1.15,.23,2.29,.23,3.44s-.08,2.29-.23,3.4c-.54,3.52-1.92,5.29-4.11,5.29h-5.46v31.64c0,3.86-5.56,3.86-9.23,3.86Z"/>
          <path class="cls-2" d="M421.43,75.21c.77,0,1.31,1.04,1.63,3.13,.14,1,.2,2.02,.2,3.06s-.07,2.06-.2,3.06c-.32,2.09-.86,3.13-1.63,3.13h-7.96v34.14c0,.91-2.24,1.36-6.73,1.36s-6.73-.45-6.73-1.36v-34.14h-8.16c-.77,0-1.32-1.04-1.63-3.13-.14-1-.2-2.02-.2-3.06s.07-2.06,.2-3.06c.32-2.08,.86-3.13,1.63-3.13h29.58m0-5h-29.58c-2.04,0-5.6,.96-6.58,7.38v.04s-.01,.04-.01,.04c-.17,1.22-.25,2.47-.25,3.73s.08,2.52,.25,3.73v.04s.01,.04,.01,.04c.98,6.42,4.54,7.38,6.58,7.38h3.16v29.14c0,1.12,.41,4.85,5.69,5.92,1.46,.3,3.44,.44,6.04,.44s4.58-.14,6.04-.44c5.28-1.07,5.69-4.8,5.69-5.92v-29.14h2.96c2.04,0,5.6-.96,6.57-7.38v-.04s.01-.04,.01-.04c.17-1.22,.25-2.47,.25-3.73s-.08-2.52-.25-3.73v-.04s-.01-.04-.01-.04c-.98-6.42-4.54-7.38-6.57-7.38h0Z"/>
        </g>
        <g>
          <path class="cls-1" d="M429.73,125.31c-3.75,0-5.08-2.48-5.08-4.61v-43.72c0-2.55,1.63-4.27,4.06-4.27h24.34c3.93,0,3.93,5.54,3.93,8.52s0,8.52-3.93,8.52h-10.08v1.87h6.27c3.79,0,3.79,5.09,3.79,7.26,0,1.09-.11,2.32-.34,3.76-.56,3.52-2.49,4.05-3.59,4.05h-6.14v1.8h10.01c1.52,0,3.46,.89,4.04,5.15,.15,.93,.23,1.99,.23,3.09s-.15,2.51-.45,4.21c-.64,3.62-2.43,4.38-3.82,4.38h-23.26Z"/>
          <path class="cls-2" d="M453.05,75.21c.95,0,1.43,2.01,1.43,6.02s-.48,6.02-1.43,6.02h-12.58v6.87h8.77c.86,0,1.29,1.59,1.29,4.76,0,.95-.1,2.07-.31,3.37-.2,1.29-.58,1.94-1.12,1.94h-8.64v6.8h12.51c.77,0,1.29,1,1.56,2.99,.14,.86,.2,1.78,.2,2.75s-.14,2.23-.41,3.77-.73,2.31-1.36,2.31h-23.26c-1.72,0-2.58-.7-2.58-2.11v-43.72c0-1.18,.52-1.77,1.56-1.77h24.34m0-5h-24.34c-3.8,0-6.56,2.85-6.56,6.77v43.72c0,4.19,3.12,7.11,7.58,7.11h23.26c1.21,0,5.23-.46,6.28-6.44,.33-1.84,.48-3.36,.48-4.64,0-1.21-.09-2.38-.26-3.48-.74-5.29-3.44-6.77-5.33-7.15,.45-.8,.8-1.81,1-3.08,.25-1.57,.37-2.92,.37-4.15,0-2.08-.16-3.63-.5-4.88-.19-.72-.46-1.34-.77-1.88,1.94-.44,3.94-1.96,4.72-5.21,.34-1.41,.49-3.22,.49-5.67s-.16-4.25-.49-5.67c-.94-3.94-3.68-5.35-5.94-5.35h0Z"/>
        </g>
      </g>
    </g>
  </g>
</svg>